PathFileType	4	(X/Y/Z)	I12_1_OpenSim.trc																																																																																																																						
DataRate	CameraRate	NumFrames	NumMarkers	Units	OrigDataRate	OrigDataStartFrame	OrigNumFrames																																																																																																																		
100	100	7	40	mm	100	1876	3000																																																																																																																		
Frame#	Time	R.ASIS			R.PSIS			S2			L.PSIS			L.ASIS			R.TH1			R.TH2			R.TH3			R.MKnee			R.Knee			R.SH1			R.SH2			R.SH3			R.SH4			R.Ankle			R.MAnkle			R.Heel			R.MT5			R.MT1			L.TH1			L.TH2			L.TH3			L.TH4			L.MKnee			L.Knee			L.SH1			L.SH2			L.SH3			L.Ankle			L.MAnkle			L.Heel			L.MT5			L.MT1			R.Acr			L.Acr			C7			T10			Clav			Sternum			R.Back		
		X1	Y1	Z1	X2	Y2	Z2	X3	Y3	Z3	X4	Y4	Z4	X5	Y5	Z5	X6	Y6	Z6	X7	Y7	Z7	X8	Y8	Z8	X9	Y9	Z9	X10	Y10	Z10	X11	Y11	Z11	X12	Y12	Z12	X13	Y13	Z13	X14	Y14	Z14	X15	Y15	Z15	X16	Y16	Z16	X17	Y17	Z17	X18	Y18	Z18	X19	Y19	Z19	X20	Y20	Z20	X21	Y21	Z21	X22	Y22	Z22	X23	Y23	Z23	X24	Y24	Z24	X25	Y25	Z25	X26	Y26	Z26	X27	Y27	Z27	X28	Y28	Z28	X29	Y29	Z29	X30	Y30	Z30	X31	Y31	Z31	X32	Y32	Z32	X33	Y33	Z33	X34	Y34	Z34	X35	Y35	Z35	X36	Y36	Z36	X37	Y37	Z37	X38	Y38	Z38	X39	Y39	Z39	X40	Y40	Z40
1876	18.75	874.1268	1043.2527	-431.4914	655.5751	1040.4363	-540.6764	640.7396	1042.6969	-586.8816	662.5634	1049.964	-636.6046	879.0309	1061.4393	-724.2223	868.9772	705.2543	-412.3299	787.7311	695.7749	-405.7549	800.6797	586.5591	-411.924	837.9523	466.398	-528.7617	820.7273	478.1214	-411.5606	705.3807	360.8554	-411.4123	620.2325	288.7358	-431.3081	653.0685	425.8754	-411.7939	567.7594	351.1682	-421.5569	451.4367	246.9067	-430.2074	495.2763	217.094	-516.985	405.3578	286.9433	-497.5594	449.87	125.6563	-398.1299	482.4255	78.6939	-480.1179	931.0763	767.918	-735.395	948.2489	661.9743	-719.3729	850.6415	749.8531	-750.7263	869.2988	644.0654	-727.4752	935.9634	511.1115	-589.9656	946.5138	514.0237	-699.9441	943.2551	377.6802	-715.7017	862.7242	389.7878	-731.0496	848.4381	281.0761	-722.9627	866.9804	80.9681	-714.853	892.1077	90.4531	-613.827	798.8719	40.5362	-664.197	974.339	32.7167	-729.3805	1011.1061	44.6264	-629.2384	847.8162	1453.6478	-422.3266	805.7344	1443.6716	-739.4177	773.1311	1487.099	-577.2057	734.5615	1162.9764	-570.5983	911.5921	1394.1627	-589.8602	939.5513	1249.0376	-579.705	700.9249	1389.3898	-484.6334
1877	18.76	873.4741	1045.1632	-432.988	655.3369	1041.8782	-542.4521	640.6252	1044.1631	-588.6921	662.5662	1051.4885	-638.3482	879.2833	1062.8918	-725.8337	876.0579	708.7853	-412.811	795.1286	696.5293	-407.2894	811.7279	587.8535	-413.0746	853.153	469.2383	-529.6291	835.3909	480.4864	-412.1857	720.7213	363.5141	-412.7213	635.3713	291.7209	-433.2228	668.6226	428.6726	-412.9381	583.1184	354.2226	-423.1874	466.5773	251.0135	-432.6081	510.5876	221.3799	-519.3544	419.8907	290.4155	-500.0305	466.3788	129.9928	-400.3526	499.4782	82.9129	-482.062	928.4518	767.5162	-736.254	944.1987	661.6928	-720.3768	847.7355	750.7709	-751.9709	864.5657	644.695	-728.6442	928.3559	510.7041	-590.7985	939.193	513.2882	-700.7523	934.3489	377.0256	-716.3307	853.9818	389.8945	-731.8543	838.6002	281.3386	-723.6723	855.179	81.0471	-714.9883	880.2703	90.5804	-613.9478	786.9974	40.7004	-664.2564	962.3964	32.7096	-729.49	999.2162	44.6076	-629.2525	846.337	1454.9409	-423.2437	807.1193	1445.585	-740.694	773.1463	1488.8235	-578.6669	734.438	1164.6654	-572.8326	911.5548	1395.6979	-590.3571	939.2853	1250.5176	-580.1759	700.0229	1390.9597	-487.0196
1878	18.77	872.7145	1047.1575	-434.3453	655.0009	1043.486	-544.2222	640.4288	1045.7687	-590.5017	662.5021	1053.1012	-640.0876	879.4866	1064.2515	-727.272	882.7002	712.7519	-413.1908	802.1639	697.7604	-408.7662	822.3471	589.7524	-414.1508	867.9064	472.6999	-530.5124	849.6484	483.4194	-412.8855	736.1265	366.2123	-413.9797	650.9766	294.2763	-434.9782	683.8713	431.2047	-414.1958	598.5843	356.5447	-424.8213	482.5628	253.202	-434.8573	526.7473	224.4347	-521.6528	434.5275	291.3066	-502.1465	485.3295	132.5371	-402.4902	519.3893	86.1323	-484.18	925.5914	767.0666	-737.1099	939.7597	661.3671	-721.4335	844.5496	751.6727	-753.2044	859.5377	645.339	-729.8472	920.53	510.3189	-591.7664	931.5244	512.6033	-701.6968	925.1641	376.4459	-717.1027	844.9506	390.0077	-732.7259	828.5689	281.6096	-724.4232	843.3622	81.1306	-715.1598	868.4474	90.7262	-614.1284	775.131	40.8764	-664.3198	950.443	32.6859	-729.624	987.3156	44.6048	-629.2997	844.7656	1456.2288	-424.0801	808.4023	1447.4592	-741.8568	773.0845	1490.5151	-580.0368	734.2093	1166.3298	-574.993	911.4269	1397.1813	-590.7245	938.9503	1251.9707	-580.4879	699.0535	1392.5149	-489.3244
1879	18.78	871.8996	1049.2162	-435.5828	654.5793	1045.227	-545.9706	640.1573	1047.4842	-592.2908	662.376	1054.7738	-641.8078	879.6376	1065.5126	-728.5485	888.9567	717.1089	-413.4719	808.8753	699.4356	-410.1185	832.5566	592.2003	-415.1044	882.1513	476.7188	-531.4068	863.4697	486.8467	-413.6469	751.5762	368.8445	-415.1636	667.027	296.2988	-436.5134	698.7906	433.3621	-415.5231	614.1351	358.027	-426.405	499.3526	253.4841	-436.9216	543.7582	226.1139	-523.815	449.5033	289.7797	-503.9357	506.2519	133.3034	-404.4963	541.6342	88.1806	-486.3269	922.4871	766.554	-737.9835	934.8166	660.8985	-722.5185	841.0684	752.5452	-754.415	854.2092	645.9878	-731.0589	912.5182	509.9505	-592.8594	923.5273	511.9725	-702.7745	915.7304	375.9386	-718.0049	835.6563	390.1296	-733.653	818.361	281.8922	-725.2027	831.5354	81.2152	-715.361	856.6366	90.8823	-614.3626	763.2679	41.0641	-664.3834	938.4866	32.6558	-729.7842	975.3943	44.6236	-629.3813	843.1333	1457.5055	-424.8338	809.5883	1449.3015	-742.9096	772.9418	1492.1625	-581.3194	733.8906	1167.9602	-577.0835	911.2094	1398.6301	-590.9844	938.558	1253.4126	-580.6772	698.0299	1394.0421	-491.5416
1880	18.79	871.0704	1051.3084	-436.7288	654.0809	1047.0431	-547.6641	639.8106	1049.2535	-594.0219	662.1793	1056.458	-643.4773	879.7145	1066.6671	-729.6885	894.8842	721.7967	-413.6641	815.3083	701.5129	-411.2911	842.3782	595.1319	-415.9124	895.8278	481.2194	-532.3065	876.8239	490.6827	-414.4528	767.0572	371.3038	-416.2635	683.5085	297.7071	-437.805	713.3731	435.0356	-416.8438	629.7694	358.5795	-427.8811	516.8998	251.9433	-438.7962	561.6296	226.3471	-525.7962	465.0328	286.0328	-505.4735	528.7152	132.4037	-406.3261	565.7187	88.9903	-488.3596	919.1299	765.9727	-738.8855	929.3242	660.2317	-723.6078	837.2885	753.381	-755.5875	848.5858	646.6339	-732.253	904.3442	509.5914	-594.0565	915.2234	511.3943	-703.9636	906.0764	375.4974	-719.0095	826.124	390.261	-734.6103	807.9901	282.1887	-725.9976	819.7033	81.2977	-715.5824	844.8366	91.0399	-614.6365	751.3987	41.2651	-664.4437	926.5317	32.6292	-729.9637	963.4525	44.6624	-629.4918	841.4629	1458.7579	-425.513	810.6853	1451.1121	-743.8541	772.7149	1493.7489	-582.5183	733.4965	1169.5415	-579.1059	910.9022	1400.0533	-591.162	938.1156	1254.8462	-580.7806	696.9641	1395.5223	-493.6672
1881	18.8	870.2551	1053.3942	-437.8159	653.5112	1048.8584	-549.2571	639.3829	1051.0034	-595.6467	661.8957	1058.0916	-645.0521	879.684	1067.7036	-730.7284	900.5259	726.7338	-413.7917	821.4995	703.9392	-412.2489	851.8226	598.474	-416.5744	908.8848	486.1157	-533.207	889.6735	494.8414	-415.2825	782.5413	373.5137	-417.2816	700.3994	298.4629	-438.8723	727.6127	436.1467	-418.0846	645.4869	358.1602	-429.2119	535.1558	248.7166	-440.4849	580.3577	225.1475	-527.5766	481.264	280.2661	-506.8434	552.3992	130.0246	-407.9357	591.2511	88.6022	-490.1574	915.5035	765.3284	-739.8232	923.344	659.3807	-724.693	833.2217	754.1783	-756.7083	842.6877	647.2712	-733.4069	896.026	509.2325	-595.3287	906.6372	510.8647	-705.2325	896.2268	375.1108	-720.0789	816.3814	390.4012	-735.5648	797.4714	282.4979	-726.7953	807.8689	81.3759	-715.8123	833.0457	91.1902	-614.9325	739.5098	41.484	-664.5011	914.582	32.613	-730.1511	951.4979	44.7154	-629.626	839.7646	1459.967	-426.137	811.7006	1452.882	-744.6932	772.4025	1495.2526	-583.6384	733.0411	1171.0538	-581.0594	910.5079	1401.449	-591.2817	937.629	1256.2623	-580.8325	695.8655	1396.9307	-495.7003
1882	18.81	869.4747	1055.4299	-438.8741	652.8738	1050.5927	-550.699	638.8661	1052.6564	-597.1125	661.5073	1059.6078	-646.4815	879.5105	1068.6075	-731.7103	905.902	731.8192	-413.889	827.467	706.6475	-412.9769	860.8813	602.1426	-417.1042	921.2812	491.3132	-534.1037	901.9742	499.2443	-416.1153	797.9769	375.445	-418.2291	717.67	298.5738	-439.7711	741.5021	436.6607	-419.2	661.2834	356.7837	-430.3906	554.0815	243.9688	-441.9818	599.9205	222.5997	-529.1494	498.2842	272.6635	-508.0999	577.111	126.395	-409.2826	617.9634	87.1481	-491.6306	911.5752	764.6401	-740.8094	917.0085	658.4046	-725.7761	828.8944	754.9381	-757.7692	836.5495	647.8946	-734.5041	887.5793	508.8643	-596.6401	897.7977	510.3783	-706.547	886.204	374.765	-721.1704	806.4593	390.5485	-736.4861	786.8231	282.816	-727.5834	796.0332	81.4505	-716.0382	821.2585	91.326	-615.2321	727.5867	41.7292	-664.5608	902.6387	32.6098	-730.3351	939.5364	44.7755	-629.7777	838.0427	1461.1071	-426.7287	812.6387	1454.5936	-745.4326	772.0071	1496.6489	-584.686	732.5378	1172.4733	-582.9409	910.0349	1402.8026	-591.3628	937.1052	1257.6393	-580.8624	694.7412	1398.239	-497.6415
